<svg width="27" height="19" viewBox="0 0 27 19" fill="none" xmlns="http://www.w3.org/2000/svg">
<path d="M14.2583 12.821C14.2583 10.6732 13.3046 9.08548 11.3343 8.49039C12.7719 7.75699 13.5216 6.64586 13.5216 4.91755C13.5216 1.50974 11.1433 0.678711 8.39943 0.678711H0.844727V17.7886H8.611C11.5231 17.7886 14.2583 16.2974 14.2583 12.821ZM4.36657 3.59952H7.67141C8.94192 3.59952 10.0855 3.98075 10.0855 5.55447C10.0855 7.00732 9.19581 7.59195 7.93723 7.59195H4.36657V3.59952ZM4.36548 14.8829V10.171H8.20414C9.75457 10.171 10.7354 10.8614 10.7354 12.6142C10.7354 14.3425 9.5647 14.8829 8.13144 14.8829H4.36548Z" fill="white"/>
<path d="M21.238 18.1132C24.009 18.1132 25.8035 16.78 26.6672 13.9464H23.8549C23.5522 15.0041 22.3045 15.5631 21.3367 15.5631C19.4694 15.5631 18.4886 14.395 18.4886 12.4099H26.8571C27.1218 8.4372 25.056 5.05148 21.2369 5.05148C17.7009 5.05148 15.301 7.88977 15.301 11.6079C15.301 15.4667 17.5751 18.1132 21.238 18.1132ZM21.1381 7.62245C22.7385 7.62245 23.5435 8.62666 23.6781 10.269H18.493C18.5982 8.6406 19.6105 7.62245 21.1381 7.62245Z" fill="white"/>
<path d="M17.844 1.57697H24.3409V3.26228H17.844V1.57697Z" fill="white"/>
</svg>
