<svg width="22" height="22" viewBox="0 0 22 22" fill="none" xmlns="http://www.w3.org/2000/svg">
<path fill-rule="evenodd" clip-rule="evenodd" d="M10.6991 21.0979C4.9001 21.0979 0.182617 16.38 0.182617 10.5821C0.182617 4.78517 4.9001 0.0673828 10.6991 0.0673828C16.4981 0.0673828 21.2156 4.78517 21.2156 10.5821C21.2156 16.38 16.4981 21.0979 10.6991 21.0979ZM19.1038 11.9465C18.8128 11.8558 16.469 11.1556 13.8018 11.5823C14.9151 14.6412 15.3684 17.1343 15.4553 17.651C17.3649 16.3599 18.7249 14.315 19.1038 11.9465ZM14.0247 18.4309C13.8973 17.6843 13.4031 15.081 12.208 11.9763C12.19 11.9826 12.1713 11.9881 12.1518 11.9951C7.35127 13.6667 5.6277 16.9979 5.47431 17.311C6.91703 18.4358 8.73138 19.1073 10.6991 19.1073C11.8779 19.1072 13.0024 18.8655 14.0247 18.4309ZM4.37512 16.2866C4.56762 15.9562 6.90419 12.0885 11.2941 10.6694C11.4052 10.6333 11.5171 10.6001 11.6293 10.5689C11.4159 10.0845 11.1836 9.60166 10.9392 9.12379C6.68849 10.3961 2.56358 10.3435 2.19053 10.3352C2.18809 10.4218 2.18675 10.5087 2.18675 10.5953C2.18675 12.7819 3.01545 14.7777 4.37512 16.2866ZM2.36645 8.85228C2.74745 8.85708 6.25421 8.87165 10.2361 7.8154C8.82594 5.30775 7.30456 3.19972 7.0798 2.89293C4.69853 4.01562 2.91813 6.21092 2.36645 8.85228ZM8.70436 2.32116C8.93983 2.63595 10.4857 4.74087 11.8807 7.30389C14.9081 6.16804 16.1888 4.44719 16.3415 4.22967C14.8386 2.89502 12.8618 2.08498 10.699 2.08498C10.012 2.08498 9.34434 2.1667 8.70436 2.32116ZM17.288 5.21288C17.109 5.45603 15.6818 7.28451 12.5348 8.56828C12.733 8.97488 12.9227 9.38765 13.1 9.80189C13.1621 9.94942 13.2233 10.0956 13.2829 10.241C16.1154 9.88499 18.9295 10.4554 19.2111 10.5156C19.192 8.50665 18.4741 6.66182 17.288 5.21288Z" fill="white"/>
</svg>
