<svg width="22" height="22" viewBox="0 0 22 22" fill="none" xmlns="http://www.w3.org/2000/svg">
<path fill-rule="evenodd" clip-rule="evenodd" d="M0.27002 5.80316C0.27002 2.63511 2.83823 0.0668945 6.00628 0.0668945H15.5667C18.7348 0.0668945 21.303 2.63511 21.303 5.80316V15.3636C21.303 18.5316 18.7348 21.0999 15.5667 21.0999H6.00628C2.83823 21.0999 0.27002 18.5316 0.27002 15.3636V5.80316ZM6.00628 2.17019H15.5667C17.5731 2.17019 19.1997 3.79672 19.1997 5.80316V15.3636C19.1997 17.37 17.5731 18.9966 15.5667 18.9966H12.5836V13.489H14.1824L14.4362 11.2749H12.5831V9.74952C12.5836 9.10958 12.7422 8.67153 13.5634 8.67153H14.6107V6.691C14.43 6.66401 13.8086 6.60328 13.085 6.60328C11.575 6.60328 10.5407 7.63455 10.5407 9.52998V11.2744H8.87441V13.4885H10.5407V18.9966H6.00628C3.99985 18.9966 2.37332 17.37 2.37332 15.3636V5.80316C2.37332 3.79672 3.99985 2.17019 6.00628 2.17019Z" fill="white"/>
</svg>
