<svg width="22" height="21" viewBox="0 0 22 21" fill="none" xmlns="http://www.w3.org/2000/svg">
<path d="M14.5802 0.160156H6.84973C3.29245 0.160156 0.407715 3.0513 0.407715 6.61649V14.3641C0.407715 17.9293 3.29245 20.8204 6.84973 20.8204H14.5802C18.1374 20.8204 21.0222 17.9293 21.0222 14.3641V6.61649C21.0222 3.0513 18.1374 0.160156 14.5802 0.160156ZM19.0896 14.3641C19.0896 16.8562 17.0668 18.8835 14.5802 18.8835H6.84973C4.36311 18.8835 2.34032 16.8562 2.34032 14.3641V6.61649C2.34032 4.12434 4.36311 2.09706 6.84973 2.09706H14.5802C17.0668 2.09706 19.0896 4.12434 19.0896 6.61649V14.3641Z" fill="white"/>
<path d="M10.715 5.3255C7.86892 5.3255 5.56139 7.63815 5.56139 10.4906C5.56139 13.343 7.86892 15.6556 10.715 15.6556C13.5611 15.6556 15.8686 13.343 15.8686 10.4906C15.8686 7.63815 13.5611 5.3255 10.715 5.3255ZM10.715 13.7187C8.93958 13.7187 7.49399 12.2699 7.49399 10.4906C7.49399 8.7099 8.93958 7.26239 10.715 7.26239C12.4904 7.26239 13.936 8.7099 13.936 10.4906C13.936 12.2699 12.4904 13.7187 10.715 13.7187Z" fill="white"/>
<path d="M16.2553 5.62601C16.6345 5.62601 16.9419 5.31787 16.9419 4.93775C16.9419 4.55763 16.6345 4.24948 16.2553 4.24948C15.876 4.24948 15.5686 4.55763 15.5686 4.93775C15.5686 5.31787 15.876 5.62601 16.2553 5.62601Z" fill="white"/>
</svg>
